<svg width="614" height="93" viewBox="0 0 614 93" xmlns="http://www.w3.org/2000/svg"><title>supernova-logo</title><desc>Created with Sketch.</desc><g fill="none" fill-rule="evenodd"><g fill="#fff"><path d="M611.276.486l-59.83 89.746v1.812h2.137l57.046-85.57v85.57h2.783V.486h-2.137zm-68.93 91.558l-59.83-89.746V.488h2.137L541.7 86.055V.486h2.782v91.558h-2.137zM0 2.3V.485h61.967V3.27H3.993l57.974 86.962v1.812H0V89.26h57.974L0 2.3zM128.114.485V89.26h-56.4V.486h-2.783v91.558H130.9V.486h-2.784zm9.748 0v91.558h2.783V3.27h55.19l-26.99 40.486v2.51h1.673L199.18 3.27h.65V.486H137.86zm275.723 91.558h61.967V.484h-61.967v91.56zm2.783-88.774h56.4v85.99h-56.4V3.27zM337.69 2.3V.485h-61.967v91.558h2.784V3.27h55.19l-28.663 42.995 30.52 45.78h2.136V90.23l-29.31-43.966L337.69 2.3zM206.792.485v91.558h61.967V89.26h-59.184V6.475l26.527 39.79h1.673v-2.51L210.785 3.27h57.973V.486H206.79zm197.045 0v85.57l-56.4-84.6v-.97h-2.783v91.558h2.784V6.474l56.4 84.6v.97h2.783V.486h-2.783z"/></g></g></svg>